<svg width="37" height="35" viewBox="0 0 37 35" fill="none" xmlns="http://www.w3.org/2000/svg">
<path d="M8.40845 21H24.1084C24.5759 21.0014 25.0289 20.838 25.3878 20.5385C25.7468 20.2391 25.9886 19.8227 26.0709 19.3625L27.5959 11H6.59595" stroke="url(#paint0_linear_10_808)" stroke-width="1.5" stroke-linecap="round" stroke-linejoin="round"/>
<path d="M8.40845 21H24.1084C24.5759 21.0014 25.0289 20.838 25.3878 20.5385C25.7468 20.2391 25.9886 19.8227 26.0709 19.3625L27.5959 11H6.59595" stroke="#D1D2D7" stroke-opacity="0.3" stroke-width="1.5" stroke-linecap="round" stroke-linejoin="round"/>
<path d="M23.5959 31C24.9767 31 26.0959 29.8807 26.0959 28.5C26.0959 27.1193 24.9767 26 23.5959 26C22.2152 26 21.0959 27.1193 21.0959 28.5C21.0959 29.8807 22.2152 31 23.5959 31Z" stroke="#D5B690" stroke-width="1.3" stroke-linecap="round" stroke-linejoin="round"/>
<path d="M10.5959 31C11.9767 31 13.0959 29.8807 13.0959 28.5C13.0959 27.1193 11.9767 26 10.5959 26C9.21524 26 8.09595 27.1193 8.09595 28.5C8.09595 29.8807 9.21524 31 10.5959 31Z" stroke="url(#paint1_linear_10_808)" stroke-width="1.3" stroke-linecap="round" stroke-linejoin="round"/>
<path d="M10.5959 31C11.9767 31 13.0959 29.8807 13.0959 28.5C13.0959 27.1193 11.9767 26 10.5959 26C9.21524 26 8.09595 27.1193 8.09595 28.5C8.09595 29.8807 9.21524 31 10.5959 31Z" stroke="#D1D2D7" stroke-opacity="0.5" stroke-width="1.3" stroke-linecap="round" stroke-linejoin="round"/>
<path d="M23.5959 26H9.32095L5.83345 6.825C5.79264 6.59537 5.67286 6.38722 5.49481 6.23657C5.31677 6.08592 5.09167 6.00223 4.85845 6H2.59595" stroke="url(#paint2_linear_10_808)" stroke-width="1.5" stroke-linecap="round" stroke-linejoin="round"/>
<path d="M23.5959 26H9.32095L5.83345 6.825C5.79264 6.59537 5.67286 6.38722 5.49481 6.23657C5.31677 6.08592 5.09167 6.00223 4.85845 6H2.59595" stroke="#AEAEAE" stroke-opacity="0.5" stroke-width="1.5" stroke-linecap="round" stroke-linejoin="round"/>
<rect x="24.2522" y="0.28125" width="12" height="12" rx="6" fill="#58BD7D"/>
<path d="M28.9643 4.71325V3.44125H31.1803V9.28125H29.7563V4.71325H28.9643Z" fill="white"/>
<defs>
<linearGradient id="paint0_linear_10_808" x1="27.5959" y1="21" x2="21.884" y2="11.6553" gradientUnits="userSpaceOnUse">
<stop stop-color="#ECAF5A"/>
<stop offset="1" stop-color="#89683D"/>
</linearGradient>
<linearGradient id="paint1_linear_10_808" x1="13.0959" y1="31" x2="9.98441" y2="28.5759" gradientUnits="userSpaceOnUse">
<stop stop-color="#ECAF5A"/>
<stop offset="1" stop-color="#89683D"/>
</linearGradient>
<linearGradient id="paint2_linear_10_808" x1="23.5959" y1="26" x2="11.0146" y2="15.7084" gradientUnits="userSpaceOnUse">
<stop stop-color="#ECAF5A"/>
<stop offset="1" stop-color="#89683D"/>
</linearGradient>
</defs>
</svg>
